# File created by Blade
# Date/Time:  Wed Sep 24 19:53:44 2014
# Frame Rate: 120.000 fps
#------------------------------------------------------
:FULLY-SPECIFIED
:DEGREES
1531
root -6.255733 32.806115 -3.829790 8.935483 7.650613 -0.726607
Spine -17.208335 -2.579476 1.744298
Head -3.571126 4.716947 19.843347
LeftShoulder -6.102656 6.173711 25.913150
LeftArm 115.074145 -66.369458 -124.154097
LeftForeArm -52.668459 -0.000000 151.269695
LeftHand -3.351382 0.000000 -27.075733
LeftHandThumb1 -26.253704 0.000000 33.147579
RightShoulder -16.310649 11.586527 -14.518534
RightArm -11.273665 -18.291504 82.854878
RightForeArm -20.719016 -0.000000 18.871642
RightHand -7.129479 -0.000000 9.389631
RightHandThumb1 -24.326973 -0.000000 -32.862282
LeftUpLeg -2.664340 4.800881 5.171225
LeftLeg -2.514118 -0.000000 0.000000
LeftFoot -8.935398 2.732435 -18.355772
LeftToeBase 11.378081 -0.000000 -0.000000
RightUpLeg -2.745476 -10.022167 -2.430780
RightLeg 1.667250 -0.000000 -0.000000
RightFoot -8.002542 -7.366969 -12.483606
RightToeBase -0.563611 -0.000000 0.000000
1532
root -6.254257 32.806861 -3.826192 8.908051 7.648845 -0.733000
Spine -17.233769 -2.572271 1.703756
Head -3.465077 4.674562 19.863907
LeftShoulder -6.023178 6.069136 25.982268
LeftArm 115.642788 -66.256014 -124.879423
LeftForeArm -52.454775 -0.000000 150.748621
LeftHand -3.230174 0.000000 -26.690258
LeftHandThumb1 -26.253704 0.000000 33.147579
RightShoulder -16.302023 11.634000 -14.501602
RightArm -11.284409 -18.300943 82.861708
RightForeArm -20.725947 -0.000000 18.870612
RightHand -7.112580 -0.000000 9.381912
RightHandThumb1 -24.326973 -0.000000 -32.862282
LeftUpLeg -2.630963 4.799990 5.179255
LeftLeg -2.512117 -0.000000 0.000000
LeftFoot -8.937064 2.727279 -18.370773
LeftToeBase 11.324461 -0.000000 -0.000000
RightUpLeg -2.715909 -10.070311 -2.429261
RightLeg 1.670188 -0.000000 -0.000000
RightFoot -8.008513 -7.315235 -12.476652
RightToeBase -0.572580 -0.000000 0.000000
1533
root -6.252583 32.807638 -3.821464 8.866625 7.648947 -0.745688
Spine -17.237038 -2.590498 1.679600
Head -3.365997 4.707351 19.875542
LeftShoulder -5.926010 5.935307 26.090222
LeftArm 116.195102 -66.231109 -125.664140
LeftForeArm -52.679136 -0.000000 150.131693
LeftHand -3.260833 -0.000000 -26.596710
LeftHandThumb1 -26.253704 0.000000 33.147579
RightShoulder -16.268792 11.677752 -14.474353
RightArm -11.262312 -18.224029 82.845902
RightForeArm -20.743047 0.000000 18.855116
RightHand -7.090405 -0.000000 9.392241
RightHandThumb1 -24.326973 -0.000000 -32.862282
LeftUpLeg -2.577848 4.809679 5.192212
LeftLeg -2.521001 -0.000000 0.000000
LeftFoot -8.934378 2.719386 -18.362152
LeftToeBase 11.328236 -0.000000 -0.000000
RightUpLeg -2.663103 -10.073386 -2.427360
RightLeg 1.659256 -0.000000 -0.000000
RightFoot -7.981238 -7.314541 -12.484466
RightToeBase -0.597746 -0.000000 0.000000
1534
root -6.250499 32.808963 -3.817446 8.832411 7.648048 -0.753492
Spine -17.243423 -2.584254 1.646073
Head -3.289420 4.747013 19.890073
LeftShoulder -5.790323 5.845269 26.198334
LeftArm 116.816280 -66.231245 -126.465327
LeftForeArm -52.819610 -0.000000 149.530273
LeftHand -3.311693 -0.000000 -26.370965
LeftHandThumb1 -26.253704 0.000000 33.147579
RightShoulder -16.257376 11.699477 -14.444909
RightArm -11.224646 -18.176434 82.823559
RightForeArm -20.782934 0.000000 18.843642
RightHand -7.098027 -0.000000 9.442167
RightHandThumb1 -24.326973 -0.000000 -32.862282
LeftUpLeg -2.537904 4.816757 5.196561
LeftLeg -2.519940 -0.000000 0.000000
LeftFoot -8.927360 2.728483 -18.360203
LeftToeBase 11.329052 -0.000000 -0.000000
RightUpLeg -2.621792 -10.054986 -2.431839
RightLeg 1.659413 -0.000000 -0.000000
RightFoot -7.972711 -7.305925 -12.462839
RightToeBase -0.587020 -0.000000 0.000000
